<svg preserveAspectRatio="none" data-bbox="27.9 32.9 196.3 49.8" viewBox="27.9 32.9 196.3 49.8" xmlns="http://www.w3.org/2000/svg" data-type="color" role="presentation" aria-hidden="true" aria-label="">
    <g>
        <path d="M29.4 49.7c-1 2.1-1.5 4.4-1.5 7.2s.5 5.1 1.5 7.2c1 2.1 2.4 3.6 4.2 4.8 1.8 1.1 3.7 1.7 5.9 1.7 1.9 0 3.5-.4 4.9-1.1 1.4-.8 2.5-1.8 3.3-3v3.8h8.1V35.1h-8.1v12.3c-.8-1.2-2-2.2-3.4-2.9-1.4-.7-3-1.1-4.7-1.1-2.2 0-4.2.6-5.9 1.7-1.8 1-3.2 2.5-4.3 4.6zM46 52.1c1.1 1.2 1.7 2.8 1.7 4.8s-.6 3.6-1.7 4.8c-1.1 1.2-2.5 1.8-4.1 1.8-1.6 0-3-.6-4.1-1.8-1.1-1.2-1.7-2.8-1.7-4.8s.6-3.6 1.7-4.7c1.1-1.2 2.5-1.8 4.1-1.8 1.6-.1 3 .5 4.1 1.7z" fill="#ffffff" fill-rule="evenodd" clip-rule="evenodd" data-color="1"></path>
        <path d="M86.4 58.8c.1-.8.1-1.6.1-2.4 0-2.7-.6-5-1.7-7s-2.7-3.5-4.6-4.6c-2-1.1-4.3-1.6-6.8-1.6-2.6 0-4.9.6-7 1.7-2 1.1-3.6 2.7-4.7 4.7-1.1 2.1-1.7 4.5-1.7 7.2s.6 5.1 1.7 7.2c1.1 2.1 2.7 3.6 4.7 4.7s4.3 1.7 6.9 1.7c2.1 0 4.1-.4 5.8-1.2 1.7-.8 3.2-1.9 4.3-3.3 1.2-1.4 2-3 2.4-4.7h-8.6c-.8 1.7-2.2 2.6-4.2 2.6-1.4 0-2.5-.4-3.5-1.3-.9-.9-1.4-2.1-1.6-3.8h18.5zM76.9 51c.9.8 1.4 1.9 1.4 3.3H68.1c.2-1.5.8-2.6 1.7-3.4.9-.8 2.1-1.2 3.5-1.2 1.4.1 2.6.5 3.6 1.3z" fill="#ffffff" fill-rule="evenodd" clip-rule="evenodd" data-color="1"></path>
        <path d="M115.8 56.5c0 .8 0 1.5-.1 2.4H97.3c.1 1.6.6 2.9 1.6 3.8.9.9 2.1 1.3 3.5 1.3 2 0 3.4-.9 4.2-2.6h8.6c-.4 1.7-1.2 3.3-2.4 4.7-1.1 1.4-2.6 2.5-4.3 3.3-1.7.8-3.7 1.2-5.8 1.2-2.6 0-4.9-.6-6.9-1.7s-3.6-2.7-4.7-4.7c-1.1-2.1-1.7-4.5-1.7-7.2s.6-5.1 1.7-7.2c1.1-2.1 2.7-3.6 4.7-4.7s4.3-1.7 7-1.7c2.6 0 4.8.5 6.8 1.6s3.5 2.6 4.6 4.6c1 1.9 1.6 4.2 1.6 6.9zm-8.3-2.2c0-1.4-.5-2.5-1.4-3.3-.9-.8-2.1-1.2-3.6-1.2-1.4 0-2.5.4-3.5 1.2-.9.8-1.5 1.9-1.7 3.4h10.2z" fill="#ffffff" fill-rule="evenodd" clip-rule="evenodd" data-color="1"></path>
        <path d="M131.4 44.4c-1.4.8-2.5 1.8-3.3 3v-3.7H120v39h8.1V66.4c.8 1.2 1.9 2.2 3.3 2.9 1.4.8 3 1.1 4.9 1.1 2.2 0 4.2-.6 5.9-1.7 1.8-1.1 3.2-2.7 4.2-4.8 1-2.1 1.6-4.5 1.6-7.2s-.5-5.1-1.6-7.2c-1-2.1-2.4-3.6-4.2-4.7-1.8-1.1-3.7-1.7-5.9-1.7-1.9.2-3.5.6-4.9 1.3zm6.6 7.7c1.1 1.1 1.7 2.7 1.7 4.7s-.6 3.6-1.7 4.8c-1.1 1.2-2.5 1.8-4.1 1.8-1.6 0-3-.6-4.1-1.8-1.1-1.2-1.7-2.8-1.7-4.8s.6-3.6 1.7-4.8c1.1-1.2 2.5-1.8 4.1-1.8 1.6.1 3 .7 4.1 1.9z" fill="#ffffff" fill-rule="evenodd" clip-rule="evenodd" data-color="1"></path>
        <path d="M152.2 35.1v35h8.1V42.6l-8.1-7.5z" fill="#ffffff" data-color="1"></path>
        <path d="M166.1 48.1v22h8.1V55.6l-8.1-7.5z" fill="#ffffff" data-color="1"></path>
        <path d="M174.2 39.7h-8.1v3l8.1 7.5V39.7z" fill="#15a3e0" data-color="2"></path>
        <path d="M197 50.4h-8v19.7h-8.1V50.4H178v-6.7h2.9v-.8c0-3.3.9-5.7 2.8-7.4 1.9-1.7 4.6-2.6 8.2-2.6h1.3v6.9c-1.5-.1-2.6.1-3.3.7-.6.5-.9 1.5-.9 2.9v.2h14.2l6.1 16.5 6.1-16.5h8.8l-16.6 39h-8.7l6.1-13.5-8-18.7z" fill="#ffffff" data-color="1"></path>
    </g>
</svg>